<svg xmlns="http://www.w3.org/2000/svg" xmlns:xlink="http://www.w3.org/1999/xlink" width="1920" height="1080" viewBox="0 0 1920 1080">
  <defs>
    <clipPath id="clip-Web_1920_1">
      <rect width="1920" height="1080"/>
    </clipPath>
  </defs>
  <g id="Web_1920_1" data-name="Web 1920 – 1" clip-path="url(#clip-Web_1920_1)">
    <rect width="1920" height="1080" fill="#fff"/>
    <text id="O" transform="matrix(0.985, 0.174, -0.174, 0.985, 1285.729, 281.389)" fill="#111" font-size="50" font-family="BrownSugar, Brown Sugar"><tspan x="0" y="0">O</tspan></text>
    <text id="D" transform="matrix(0.875, 0.485, -0.485, 0.875, 1322.076, 290.104)" fill="#111" font-size="51" font-family="BrownSugar, Brown Sugar"><tspan x="0" y="0">D</tspan></text>
    <text id="E" transform="translate(1348.913 307.629) rotate(41)" fill="#111" font-size="52" font-family="BrownSugar, Brown Sugar"><tspan x="0" y="0">E</tspan></text>
    <text id="L" transform="translate(1368.502 325.086) rotate(48)" fill="#111" font-size="52" font-family="BrownSugar, Brown Sugar"><tspan x="0" y="0">L</tspan></text>
    <text id="I" transform="matrix(0.588, 0.809, -0.809, 0.588, 1384.689, 344.161)" fill="#111" font-size="52" font-family="BrownSugar, Brown Sugar"><tspan x="0" y="0">I</tspan></text>
    <text id="N" transform="matrix(0.485, 0.875, -0.875, 0.485, 1388.602, 350.004)" fill="#111" font-size="52" font-family="BrownSugar, Brown Sugar"><tspan x="0" y="0">N</tspan></text>
    <text id="G" transform="translate(1404.551 375.235) rotate(73)" fill="#111" font-size="52" font-family="BrownSugar, Brown Sugar"><tspan x="0" y="0">G</tspan></text>
    <text id="_-" data-name="-" transform="matrix(0.017, 1, -1, 0.017, 1417.336, 422.807)" fill="#111" font-size="52" font-family="BrownSugar, Brown Sugar"><tspan x="0" y="0">-</tspan></text>
    <text id="a" transform="translate(1418.467 456.725) rotate(98)" fill="#111" font-size="52" font-family="BrownSugar, Brown Sugar"><tspan x="0" y="0">a</tspan></text>
    <text id="c" transform="matrix(-0.309, 0.951, -0.951, -0.309, 1414.118, 485.28)" fill="#111" font-size="52" font-family="BrownSugar, Brown Sugar"><tspan x="0" y="0">c</tspan></text>
    <text id="a-2" data-name="a" transform="matrix(-0.53, 0.848, -0.848, -0.53, 1403.762, 518.883)" fill="#111" font-size="52" font-family="BrownSugar, Brown Sugar"><tspan x="0" y="0">a</tspan></text>
    <text id="d-2" data-name="d" transform="translate(1384.946 547.189) rotate(131)" fill="#111" font-size="52" font-family="BrownSugar, Brown Sugar"><tspan x="0" y="0">d</tspan></text>
    <text id="e-2" data-name="e" transform="translate(1363.09 571.719) rotate(141)" fill="#111" font-size="52" font-family="BrownSugar, Brown Sugar"><tspan x="0" y="0">e</tspan></text>
    <text id="m" transform="matrix(-0.875, 0.485, -0.485, -0.875, 1342.322, 586.71)" fill="#111" font-size="52" font-family="BrownSugar, Brown Sugar"><tspan x="0" y="0">m</tspan></text>
    <text id="y" transform="translate(1311.785 603.758) rotate(162)" fill="#111" font-size="52" font-family="BrownSugar, Brown Sugar"><tspan x="0" y="0">y</tspan></text>
    <text id="_--2" data-name="-" transform="translate(1266.559 649.718) rotate(-5)" fill="#111" font-size="52" font-family="BrownSugar, Brown Sugar"><tspan x="0" y="0">-</tspan></text>
    <text id="m-2" data-name="m" transform="translate(1247.002 616.263) rotate(-173)" fill="#111" font-size="52" font-family="BrownSugar, Brown Sugar"><tspan x="0" y="0">m</tspan></text>
    <text id="o-2" data-name="o" transform="translate(1161.419 634.372) rotate(19)" fill="#111" font-size="52" font-family="BrownSugar, Brown Sugar"><tspan x="0" y="0">o</tspan></text>
    <text id="d-3" data-name="d" transform="translate(1173.585 599.255) rotate(-149)" fill="#111" font-size="52" font-family="BrownSugar, Brown Sugar"><tspan x="0" y="0">d</tspan></text>
    <text id="e-3" data-name="e" transform="translate(1106.517 351.373) rotate(-54)" fill="#111" font-size="52" font-family="BrownSugar, Brown Sugar"><tspan x="0" y="0">e</tspan></text>
    <text id="l-2" data-name="l" transform="translate(1126.762 565.21) rotate(-130)" fill="#111" font-size="52" font-family="BrownSugar, Brown Sugar"><tspan x="0" y="0">l</tspan></text>
    <text id="k" transform="translate(1110.514 545.487) rotate(-121)" fill="#111" font-size="52" font-family="BrownSugar, Brown Sugar"><tspan x="0" y="0">k</tspan></text>
    <text id="o-3" data-name="o" transform="translate(1047.771 497.012) rotate(73)" fill="#111" font-size="52" font-family="BrownSugar, Brown Sugar"><tspan x="0" y="0">o</tspan></text>
    <text id="s" transform="translate(1082.198 487.255) rotate(-97)" fill="#111" font-size="52" font-family="BrownSugar, Brown Sugar"><tspan x="0" y="0">s</tspan></text>
    <text id="_--3" data-name="-" transform="matrix(0.07, -0.998, 0.998, 0.07, 1077.83, 441.699)" fill="#111" font-size="52" font-family="BrownSugar, Brown Sugar"><tspan x="0" y="0">-</tspan></text>
    <text id="a-3" data-name="a" transform="translate(1080.073 411.116) rotate(-71)" fill="#111" font-size="52" font-family="BrownSugar, Brown Sugar"><tspan x="0" y="0">a</tspan></text>
    <text id="g-2" data-name="g" transform="matrix(0.454, -0.891, 0.891, 0.454, 1089.521, 382.433)" fill="#111" font-size="52" font-family="BrownSugar, Brown Sugar"><tspan x="0" y="0">g</tspan></text>
    <text id="e-4" data-name="e" transform="translate(1146.371 582.194) rotate(-138)" fill="#111" font-size="52" font-family="BrownSugar, Brown Sugar"><tspan x="0" y="0">e</tspan></text>
    <text id="n-2" data-name="n" transform="matrix(0.719, -0.695, 0.695, 0.719, 1121.366, 330.508)" fill="#111" font-size="52" font-family="BrownSugar, Brown Sugar"><tspan x="0" y="0">n</tspan></text>
    <text id="c-2" data-name="c" transform="translate(1141.741 310.009) rotate(-29)" fill="#111" font-size="52" font-family="BrownSugar, Brown Sugar"><tspan x="0" y="0">c</tspan></text>
    <text id="y-2" data-name="y" transform="translate(1171.549 292.927) rotate(-22)" fill="#111" font-size="52" font-family="BrownSugar, Brown Sugar"><tspan x="0" y="0">y</tspan></text>
    <text id="_--4" data-name="-" transform="translate(1214.928 277.447) rotate(-3)" fill="#111" font-size="52" font-family="BrownSugar, Brown Sugar"><tspan x="0" y="0">-</tspan></text>
    <text id="M-3" data-name="M" transform="translate(1248.084 273.802) rotate(7)" fill="#111" font-size="50" font-family="BrownSugar, Brown Sugar"><tspan x="0" y="0">M</tspan></text>
  </g>
</svg>
